<svg width="120" height="46" viewBox="0 0 120 46" fill="none" xmlns="http://www.w3.org/2000/svg">
<rect x="11" width="97" height="46" rx="10" fill="white" fill-opacity="0.6"/>
<g style="mix-blend-mode:darken">
<path d="M32.9495 16.951H27.5525V16.3H39.0395V16.951H33.6425V31H32.9495V16.951ZM46.4822 20.017C47.7842 20.017 48.7782 20.353 49.4642 21.025C50.1642 21.697 50.5142 22.67 50.5142 23.944V31H49.8422V28.816C49.4922 29.516 48.9672 30.069 48.2672 30.475C47.5812 30.867 46.7552 31.063 45.7892 31.063C44.5712 31.063 43.6122 30.783 42.9122 30.223C42.2262 29.663 41.8832 28.921 41.8832 27.997C41.8832 27.115 42.1982 26.401 42.8282 25.855C43.4582 25.295 44.4662 25.015 45.8522 25.015H49.8212V23.944C49.8212 22.866 49.5342 22.047 48.9602 21.487C48.4002 20.927 47.5672 20.647 46.4612 20.647C45.6912 20.647 44.9702 20.78 44.2982 21.046C43.6262 21.312 43.0522 21.669 42.5762 22.117L42.1982 21.613C42.7302 21.109 43.3672 20.717 44.1092 20.437C44.8652 20.157 45.6562 20.017 46.4822 20.017ZM45.8312 30.475C47.7912 30.475 49.1212 29.6 49.8212 27.85V25.582H45.8522C44.7182 25.582 43.8852 25.799 43.3532 26.233C42.8352 26.653 42.5762 27.227 42.5762 27.955C42.5762 28.739 42.8632 29.355 43.4372 29.803C44.0252 30.251 44.8232 30.475 45.8312 30.475ZM62.2978 20.017C63.6558 20.017 64.7268 20.416 65.5108 21.214C66.2948 21.998 66.6868 23.125 66.6868 24.595V31H65.9938V24.637C65.9938 23.349 65.6648 22.369 65.0068 21.697C64.3628 21.011 63.4388 20.668 62.2348 20.668C60.8768 20.668 59.8058 21.074 59.0218 21.886C58.2378 22.684 57.8458 23.762 57.8458 25.12V31H57.1528V20.101H57.8248V22.768C58.1748 21.914 58.7348 21.242 59.5048 20.752C60.2888 20.262 61.2198 20.017 62.2978 20.017ZM82.6451 20.101V31H81.9731V28.354C81.6371 29.208 81.0981 29.873 80.3561 30.349C79.6141 30.825 78.7321 31.063 77.7101 31.063C76.2961 31.063 75.1901 30.671 74.3921 29.887C73.5941 29.103 73.1951 27.976 73.1951 26.506V20.101H73.8881V26.464C73.8881 27.752 74.2171 28.739 74.8751 29.425C75.5471 30.097 76.4991 30.433 77.7311 30.433C79.0331 30.433 80.0621 30.034 80.8181 29.236C81.5741 28.424 81.9521 27.339 81.9521 25.981V20.101H82.6451ZM87.4755 35.137C87.0275 35.137 86.6075 35.074 86.2155 34.948C85.8235 34.822 85.5015 34.633 85.2495 34.381L85.6065 33.877C86.0685 34.311 86.6775 34.528 87.4335 34.528C88.1055 34.528 88.6165 34.325 88.9665 33.919C89.3305 33.527 89.5125 32.96 89.5125 32.218V20.101H90.2055V32.302C90.2055 33.17 89.9675 33.856 89.4915 34.36C89.0155 34.878 88.3435 35.137 87.4755 35.137ZM89.8485 17.245C89.6665 17.245 89.5055 17.182 89.3655 17.056C89.2255 16.916 89.1555 16.755 89.1555 16.573C89.1555 16.377 89.2185 16.216 89.3445 16.09C89.4845 15.95 89.6525 15.88 89.8485 15.88C90.0305 15.88 90.1915 15.95 90.3315 16.09C90.4715 16.216 90.5415 16.37 90.5415 16.552C90.5415 16.734 90.4715 16.895 90.3315 17.035C90.1915 17.175 90.0305 17.245 89.8485 17.245Z" fill="black"/>
<path d="M32.9495 16.951H33.9495V15.951H32.9495V16.951ZM27.5525 16.951H26.5525V17.951H27.5525V16.951ZM27.5525 16.3V15.3H26.5525V16.3H27.5525ZM39.0395 16.3H40.0395V15.3H39.0395V16.3ZM39.0395 16.951V17.951H40.0395V16.951H39.0395ZM33.6425 16.951V15.951H32.6425V16.951H33.6425ZM33.6425 31V32H34.6425V31H33.6425ZM32.9495 31H31.9495V32H32.9495V31ZM32.9495 15.951H27.5525V17.951H32.9495V15.951ZM28.5525 16.951V16.3H26.5525V16.951H28.5525ZM27.5525 17.3H39.0395V15.3H27.5525V17.3ZM38.0395 16.3V16.951H40.0395V16.3H38.0395ZM39.0395 15.951H33.6425V17.951H39.0395V15.951ZM32.6425 16.951V31H34.6425V16.951H32.6425ZM33.6425 30H32.9495V32H33.6425V30ZM33.9495 31V16.951H31.9495V31H33.9495ZM49.4642 21.025L48.7643 21.7394L48.7716 21.7464L49.4642 21.025ZM50.5142 31V32H51.5142V31H50.5142ZM49.8422 31H48.8422V32H49.8422V31ZM49.8422 28.816H50.8422L48.9477 28.3688L49.8422 28.816ZM48.2672 30.475L48.7633 31.3433L48.7689 31.34L48.2672 30.475ZM42.9122 30.223L42.2797 30.9977L42.2875 31.0039L42.9122 30.223ZM42.8282 25.855L43.4831 26.6107L43.4925 26.6024L42.8282 25.855ZM49.8212 25.015V26.015H50.8212V25.015H49.8212ZM48.9602 21.487L48.253 22.1942L48.2618 22.2028L48.9602 21.487ZM44.2982 21.046L43.9301 20.1162L43.9301 20.1162L44.2982 21.046ZM42.5762 22.117L41.7762 22.717L42.4472 23.6117L43.2615 22.8452L42.5762 22.117ZM42.1982 21.613L41.5104 20.887L40.8634 21.5L41.3982 22.213L42.1982 21.613ZM44.1092 20.437L43.7618 19.4992L43.7561 19.5014L44.1092 20.437ZM49.8212 27.85L50.7496 28.2214L50.8212 28.0426V27.85H49.8212ZM49.8212 25.582H50.8212V24.582H49.8212V25.582ZM43.3532 26.233L43.983 27.0098L43.9853 27.0079L43.3532 26.233ZM43.4372 29.803L42.8218 30.5914L42.8311 30.5984L43.4372 29.803ZM46.4822 21.017C47.6178 21.017 48.3238 21.3078 48.7644 21.7394L50.1639 20.3106C49.2325 19.3982 47.9505 19.017 46.4822 19.017V21.017ZM48.7716 21.7464C49.2191 22.1759 49.5142 22.8532 49.5142 23.944H51.5142C51.5142 22.4868 51.1092 21.2181 50.1567 20.3036L48.7716 21.7464ZM49.5142 23.944V31H51.5142V23.944H49.5142ZM50.5142 30H49.8422V32H50.5142V30ZM50.8422 31V28.816H48.8422V31H50.8422ZM48.9477 28.3688C48.6881 28.888 48.3026 29.2984 47.7654 29.61L48.7689 31.34C49.6317 30.8396 50.2962 30.144 50.7366 29.2632L48.9477 28.3688ZM47.771 29.6068C47.2664 29.8951 46.6196 30.063 45.7892 30.063V32.063C46.8907 32.063 47.8959 31.8389 48.7633 31.3432L47.771 29.6068ZM45.7892 30.063C44.7172 30.063 44.0052 29.8168 43.5368 29.4421L42.2875 31.0039C43.2191 31.7492 44.4251 32.063 45.7892 32.063V30.063ZM43.5445 29.4483C43.1026 29.0876 42.8832 28.6357 42.8832 27.997H40.8832C40.8832 29.2063 41.3497 30.2384 42.2798 30.9977L43.5445 29.4483ZM42.8832 27.997C42.8832 27.3859 43.0863 26.9546 43.4831 26.6107L42.1732 25.0993C41.31 25.8474 40.8832 26.8441 40.8832 27.997H42.8832ZM43.4925 26.6024C43.8531 26.2819 44.5635 26.015 45.8522 26.015V24.015C44.3688 24.015 43.0632 24.3081 42.1638 25.1076L43.4925 26.6024ZM45.8522 26.015H49.8212V24.015H45.8522V26.015ZM50.8212 25.015V23.944H48.8212V25.015H50.8212ZM50.8212 23.944C50.8212 22.6924 50.4847 21.5773 49.6585 20.7712L48.2618 22.2028C48.5836 22.5167 48.8212 23.0396 48.8212 23.944H50.8212ZM49.6673 20.7799C48.8557 19.9683 47.7255 19.647 46.4612 19.647V21.647C47.4088 21.647 47.9446 21.8857 48.253 22.1941L49.6673 20.7799ZM46.4612 19.647C45.5735 19.647 44.7268 19.8008 43.9301 20.1162L44.6662 21.9758C45.2135 21.7592 45.8088 21.647 46.4612 21.647V19.647ZM43.9301 20.1162C43.153 20.4238 42.4681 20.8454 41.8908 21.3888L43.2615 22.8452C43.6362 22.4926 44.0993 22.2002 44.6662 21.9758L43.9301 20.1162ZM43.3762 21.517L42.9982 21.013L41.3982 22.213L41.7762 22.717L43.3762 21.517ZM42.8859 22.339C43.3137 21.9337 43.8343 21.6096 44.4622 21.3726L43.7561 19.5014C42.9 19.8244 42.1466 20.2843 41.5104 20.887L42.8859 22.339ZM44.4565 21.3747C45.0986 21.1369 45.7717 21.017 46.4822 21.017V19.017C45.5406 19.017 44.6318 19.1771 43.7618 19.4993L44.4565 21.3747ZM45.8312 31.475C46.9611 31.475 47.9859 31.2215 48.8483 30.6542C49.7136 30.0849 50.338 29.2504 50.7496 28.2214L48.8927 27.4786C48.6043 28.1996 48.2137 28.6776 47.749 28.9833C47.2814 29.291 46.6612 29.475 45.8312 29.475V31.475ZM50.8212 27.85V25.582H48.8212V27.85H50.8212ZM49.8212 24.582H45.8522V26.582H49.8212V24.582ZM45.8522 24.582C44.6264 24.582 43.5154 24.8101 42.721 25.4581L43.9853 27.0079C44.2549 26.7879 44.81 26.582 45.8522 26.582V24.582ZM42.7234 25.4562C41.9477 26.0851 41.5762 26.957 41.5762 27.955H43.5762C43.5762 27.497 43.7226 27.2209 43.983 27.0098L42.7234 25.4562ZM41.5762 27.955C41.5762 29.0198 41.9844 29.9377 42.8219 30.5913L44.0524 29.0147C43.7419 28.7723 43.5762 28.4582 43.5762 27.955H41.5762ZM42.8311 30.5984C43.6469 31.22 44.6828 31.475 45.8312 31.475V29.475C44.9635 29.475 44.4034 29.282 44.0432 29.0076L42.8311 30.5984ZM65.5108 21.214L64.7974 21.9148L64.8037 21.9211L65.5108 21.214ZM66.6868 31V32H67.6868V31H66.6868ZM65.9938 31H64.9938V32H65.9938V31ZM65.0068 21.697L64.2777 22.3814L64.2849 22.3891L64.2923 22.3966L65.0068 21.697ZM59.0218 21.886L59.7351 22.5868L59.7412 22.5806L59.0218 21.886ZM57.8458 31V32H58.8458V31H57.8458ZM57.1528 31H56.1528V32H57.1528V31ZM57.1528 20.101V19.101H56.1528V20.101H57.1528ZM57.8248 20.101H58.8248V19.101H57.8248V20.101ZM57.8248 22.768H56.8248L58.7501 23.1472L57.8248 22.768ZM59.5048 20.752L58.9748 19.904L58.9679 19.9083L59.5048 20.752ZM62.2978 21.017C63.4489 21.017 64.2405 21.3479 64.7974 21.9148L66.2241 20.5132C65.213 19.4841 63.8627 19.017 62.2978 19.017V21.017ZM64.8037 21.9211C65.3452 22.4626 65.6868 23.3008 65.6868 24.595H67.6868C67.6868 22.9492 67.2444 21.5334 66.2179 20.5069L64.8037 21.9211ZM65.6868 24.595V31H67.6868V24.595H65.6868ZM66.6868 30H65.9938V32H66.6868V30ZM66.9938 31V24.637H64.9938V31H66.9938ZM66.9938 24.637C66.9938 23.186 66.6213 21.9165 65.7213 20.9974L64.2923 22.3966C64.7083 22.8215 64.9938 23.512 64.9938 24.637H66.9938ZM65.7359 21.0126C64.8533 20.0725 63.6332 19.668 62.2348 19.668V21.668C63.2443 21.668 63.8722 21.9495 64.2777 22.3814L65.7359 21.0126ZM62.2348 19.668C60.6647 19.668 59.3124 20.1454 58.3024 21.1914L59.7412 22.5806C60.2992 22.0026 61.0888 21.668 62.2348 21.668V19.668ZM58.3084 21.1852C57.3028 22.2088 56.8458 23.5595 56.8458 25.12H58.8458C58.8458 23.9645 59.1728 23.1592 59.7351 22.5868L58.3084 21.1852ZM56.8458 25.12V31H58.8458V25.12H56.8458ZM57.8458 30H57.1528V32H57.8458V30ZM58.1528 31V20.101H56.1528V31H58.1528ZM57.1528 21.101H57.8248V19.101H57.1528V21.101ZM56.8248 20.101V22.768H58.8248V20.101H56.8248ZM58.7501 23.1472C59.0227 22.4822 59.4481 21.9734 60.0417 21.5957L58.9679 19.9083C58.0215 20.5106 57.3269 21.3458 56.8995 22.3888L58.7501 23.1472ZM60.0348 21.6C60.635 21.2249 61.3755 21.017 62.2978 21.017V19.017C61.064 19.017 59.9426 19.2991 58.9748 19.904L60.0348 21.6ZM82.6451 20.101H83.6451V19.101H82.6451V20.101ZM82.6451 31V32H83.6451V31H82.6451ZM81.9731 31H80.9731V32H81.9731V31ZM81.9731 28.354H82.9731L81.0426 27.9879L81.9731 28.354ZM80.3561 30.349L80.8961 31.1907L80.8961 31.1907L80.3561 30.349ZM74.3921 29.887L73.6913 30.6003L73.6913 30.6003L74.3921 29.887ZM73.1951 20.101V19.101H72.1951V20.101H73.1951ZM73.8881 20.101H74.8881V19.101H73.8881V20.101ZM74.8751 29.425L74.1535 30.1172L74.1607 30.1247L74.168 30.1321L74.8751 29.425ZM80.8181 29.236L81.5441 29.9238L81.55 29.9174L80.8181 29.236ZM81.9521 20.101V19.101H80.9521V20.101H81.9521ZM81.6451 20.101V31H83.6451V20.101H81.6451ZM82.6451 30H81.9731V32H82.6451V30ZM82.9731 31V28.354H80.9731V31H82.9731ZM81.0426 27.9879C80.7802 28.6548 80.3736 29.1497 79.8162 29.5073L80.8961 31.1907C81.8226 30.5963 82.4941 29.7612 82.9037 28.7201L81.0426 27.9879ZM79.8162 29.5073C79.2597 29.8643 78.5719 30.063 77.7101 30.063V32.063C78.8924 32.063 79.9686 31.7857 80.8961 31.1907L79.8162 29.5073ZM77.7101 30.063C76.4857 30.063 75.6579 29.7286 75.093 29.1737L73.6913 30.6003C74.7224 31.6134 76.1066 32.063 77.7101 32.063V30.063ZM75.093 29.1737C74.541 28.6314 74.1951 27.7954 74.1951 26.506H72.1951C72.1951 28.1566 72.6473 29.5746 73.6913 30.6003L75.093 29.1737ZM74.1951 26.506V20.101H72.1951V26.506H74.1951ZM73.1951 21.101H73.8881V19.101H73.1951V21.101ZM72.8881 20.101V26.464H74.8881V20.101H72.8881ZM72.8881 26.464C72.8881 27.9165 73.2612 29.187 74.1535 30.1172L75.5968 28.7328C75.1731 28.291 74.8881 27.5875 74.8881 26.464H72.8881ZM74.168 30.1321C75.0785 31.0426 76.3159 31.433 77.7311 31.433V29.433C76.6823 29.433 76.0157 29.1514 75.5822 28.7179L74.168 30.1321ZM77.7311 31.433C79.2528 31.433 80.5645 30.9577 81.5441 29.9237L80.0922 28.5483C79.5597 29.1103 78.8134 29.433 77.7311 29.433V31.433ZM81.55 29.9174C82.5151 28.8809 82.9521 27.5323 82.9521 25.981H80.9521C80.9521 27.1457 80.6332 27.9671 80.0862 28.5546L81.55 29.9174ZM82.9521 25.981V20.101H80.9521V25.981H82.9521ZM81.9521 21.101H82.6451V19.101H81.9521V21.101ZM86.2155 34.948L86.5215 33.996L86.5215 33.996L86.2155 34.948ZM85.2495 34.381L84.4334 33.803L83.9457 34.4915L84.5424 35.0881L85.2495 34.381ZM85.6065 33.877L86.2911 33.1482L85.4542 32.3619L84.7904 33.299L85.6065 33.877ZM88.9665 33.919L88.2337 33.2385L88.2211 33.2521L88.2091 33.2661L88.9665 33.919ZM89.5125 20.101V19.101H88.5125V20.101H89.5125ZM90.2055 20.101H91.2055V19.101H90.2055V20.101ZM89.4915 34.36L88.7644 33.6733L88.7551 33.6834L89.4915 34.36ZM89.3655 17.056L88.6584 17.7631L88.677 17.7817L88.6965 17.7993L89.3655 17.056ZM89.3445 16.09L88.6374 15.3829L88.6374 15.3829L89.3445 16.09ZM90.3315 16.09L89.6244 16.7971L89.643 16.8157L89.6625 16.8333L90.3315 16.09ZM90.3315 17.035L89.6244 16.3279L89.6244 16.3279L90.3315 17.035ZM87.4755 34.137C87.1222 34.137 86.8063 34.0875 86.5215 33.996L85.9095 35.9C86.4087 36.0605 86.9327 36.137 87.4755 36.137V34.137ZM86.5215 33.996C86.2572 33.911 86.0799 33.7973 85.9566 33.6739L84.5424 35.0881C84.923 35.4687 85.3898 35.733 85.9095 35.9L86.5215 33.996ZM86.0655 34.959L86.4225 34.455L84.7904 33.299L84.4334 33.803L86.0655 34.959ZM84.9218 34.6058C85.604 35.2467 86.4751 35.528 87.4335 35.528V33.528C86.8798 33.528 86.533 33.3753 86.2911 33.1482L84.9218 34.6058ZM87.4335 35.528C88.3166 35.528 89.1374 35.2523 89.7239 34.5719L88.2091 33.2661C88.0956 33.3977 87.8943 33.528 87.4335 33.528V35.528ZM89.6993 34.5995C90.2919 33.9612 90.5125 33.114 90.5125 32.218H88.5125C88.5125 32.806 88.369 33.0928 88.2337 33.2385L89.6993 34.5995ZM90.5125 32.218V20.101H88.5125V32.218H90.5125ZM89.5125 21.101H90.2055V19.101H89.5125V21.101ZM89.2055 20.101V32.302H91.2055V20.101H89.2055ZM89.2055 32.302C89.2055 32.982 89.0238 33.3988 88.7644 33.6734L90.2185 35.0466C90.9111 34.3132 91.2055 33.358 91.2055 32.302H89.2055ZM88.7551 33.6834C88.5114 33.9486 88.134 34.137 87.4755 34.137V36.137C88.553 36.137 89.5195 35.8074 90.2278 35.0366L88.7551 33.6834ZM89.8485 16.245C89.8755 16.245 89.914 16.2502 89.9556 16.2665C89.9967 16.2826 90.023 16.3025 90.0344 16.3127L88.6965 17.7993C89.0131 18.0842 89.4101 18.245 89.8485 18.245V16.245ZM90.0726 16.3489C90.08 16.3563 90.104 16.3832 90.125 16.4315C90.1467 16.4815 90.1555 16.532 90.1555 16.573H88.1555C88.1555 17.0448 88.349 17.4537 88.6584 17.7631L90.0726 16.3489ZM90.1555 16.573C90.1555 16.5831 90.1536 16.6196 90.134 16.6696C90.1136 16.7216 90.0831 16.7656 90.0516 16.7971L88.6374 15.3829C88.3042 15.7161 88.1555 16.1409 88.1555 16.573H90.1555ZM90.0516 16.7971C90.0374 16.8113 90.0069 16.8361 89.9601 16.8556C89.9131 16.8752 89.8722 16.88 89.8485 16.88V14.88C89.3842 14.88 88.9628 15.0575 88.6374 15.3829L90.0516 16.7971ZM89.8485 16.88C89.8074 16.88 89.7569 16.8713 89.707 16.8496C89.6587 16.8286 89.6318 16.8045 89.6244 16.7971L91.0386 15.3829C90.7292 15.0735 90.3203 14.88 89.8485 14.88V16.88ZM89.6625 16.8333C89.6419 16.8147 89.6067 16.7756 89.5786 16.7138C89.5501 16.6512 89.5415 16.5928 89.5415 16.552H91.5415C91.5415 16.0755 91.3428 15.6548 91.0004 15.3467L89.6625 16.8333ZM89.5415 16.552C89.5415 16.511 89.5502 16.4605 89.5719 16.4105C89.5929 16.3622 89.6169 16.3353 89.6244 16.3279L91.0386 17.7421C91.3479 17.4327 91.5415 17.0238 91.5415 16.552H89.5415ZM89.6244 16.3279C89.6318 16.3204 89.6587 16.2964 89.707 16.2754C89.7569 16.2537 89.8074 16.245 89.8485 16.245V18.245C90.3203 18.245 90.7292 18.0515 91.0386 17.7421L89.6244 16.3279Z" fill="black"/>
<line x1="27" y1="39.5" x2="92" y2="39.5" stroke="black" stroke-width="3"/>
<line x1="27" y1="6.5" x2="92" y2="6.5" stroke="black" stroke-width="3"/>
</g>
</svg>
